<mxfile host="Electron" modified="2024-04-07T07:57:59.361Z" agent="Mozilla/5.0 (Windows NT 10.0; Win64; x64) AppleWebKit/537.36 (KHTML, like Gecko) draw.io/24.1.0 Chrome/120.0.6099.109 Electron/28.1.0 Safari/537.36" etag="u2H3o9nQjNHJgM9giTdX" version="24.1.0" type="device">
  <diagram name="第 1 页" id="pTsB45nY29L2gIAqsLVe">
    <mxGraphModel dx="794" dy="511" grid="0" gridSize="10" guides="1" tooltips="1" connect="1" arrows="1" fold="1" page="1" pageScale="1" pageWidth="827" pageHeight="1169" math="0" shadow="0">
      <root>
        <mxCell id="0" />
        <mxCell id="1" parent="0" />
        <mxCell id="GLqzAzolnZkkeIf7VO7s-38" value="" style="rounded=0;whiteSpace=wrap;html=1;fillColor=none;strokeColor=none;" vertex="1" parent="1">
          <mxGeometry x="39" y="126" width="366" height="317" as="geometry" />
        </mxCell>
        <mxCell id="GLqzAzolnZkkeIf7VO7s-1" value="" style="endArrow=none;html=1;rounded=0;strokeWidth=2;strokeColor=#90C9E6;" edge="1" parent="1">
          <mxGeometry width="50" height="50" relative="1" as="geometry">
            <mxPoint x="224" y="427" as="sourcePoint" />
            <mxPoint x="222" y="158" as="targetPoint" />
          </mxGeometry>
        </mxCell>
        <mxCell id="GLqzAzolnZkkeIf7VO7s-2" value="" style="endArrow=none;html=1;rounded=0;strokeWidth=2;strokeColor=#90C9E6;" edge="1" parent="1">
          <mxGeometry width="50" height="50" relative="1" as="geometry">
            <mxPoint x="346" y="428" as="sourcePoint" />
            <mxPoint x="344" y="156" as="targetPoint" />
          </mxGeometry>
        </mxCell>
        <mxCell id="GLqzAzolnZkkeIf7VO7s-3" value="&lt;font face=&quot;Verdana&quot;&gt;&lt;b style=&quot;&quot;&gt;Process 0&lt;/b&gt;&lt;/font&gt;" style="text;html=1;align=center;verticalAlign=middle;whiteSpace=wrap;rounded=0;" vertex="1" parent="1">
          <mxGeometry x="187" y="132" width="73" height="30" as="geometry" />
        </mxCell>
        <mxCell id="GLqzAzolnZkkeIf7VO7s-7" value="&lt;font color=&quot;#990000&quot; face=&quot;Verdana&quot;&gt;x=0&lt;/font&gt;" style="text;html=1;align=center;verticalAlign=middle;whiteSpace=wrap;rounded=0;" vertex="1" parent="1">
          <mxGeometry x="332" y="162" width="60" height="30" as="geometry" />
        </mxCell>
        <mxCell id="GLqzAzolnZkkeIf7VO7s-12" value="&lt;font face=&quot;Verdana&quot;&gt;&lt;b style=&quot;&quot;&gt;Process 1&lt;/b&gt;&lt;/font&gt;" style="text;html=1;align=center;verticalAlign=middle;whiteSpace=wrap;rounded=0;" vertex="1" parent="1">
          <mxGeometry x="310" y="132" width="73" height="30" as="geometry" />
        </mxCell>
        <mxCell id="GLqzAzolnZkkeIf7VO7s-13" value="&lt;font face=&quot;Verdana&quot;&gt;&lt;b style=&quot;&quot;&gt;（a&lt;/b&gt;&lt;/font&gt;&lt;b style=&quot;font-family: Verdana; background-color: initial;&quot;&gt;）&lt;/b&gt;" style="text;html=1;align=center;verticalAlign=middle;whiteSpace=wrap;rounded=0;" vertex="1" parent="1">
          <mxGeometry x="31" y="180" width="53" height="30" as="geometry" />
        </mxCell>
        <mxCell id="GLqzAzolnZkkeIf7VO7s-14" value="&lt;font face=&quot;Verdana&quot;&gt;&lt;b style=&quot;&quot;&gt;（b&lt;/b&gt;&lt;/font&gt;&lt;b style=&quot;font-family: Verdana; background-color: initial;&quot;&gt;）&lt;/b&gt;" style="text;html=1;align=center;verticalAlign=middle;whiteSpace=wrap;rounded=0;" vertex="1" parent="1">
          <mxGeometry x="31" y="270" width="53" height="30" as="geometry" />
        </mxCell>
        <mxCell id="GLqzAzolnZkkeIf7VO7s-15" value="&lt;font face=&quot;Verdana&quot;&gt;&lt;b style=&quot;&quot;&gt;（c&lt;/b&gt;&lt;/font&gt;&lt;b style=&quot;font-family: Verdana; background-color: initial;&quot;&gt;）&lt;/b&gt;" style="text;html=1;align=center;verticalAlign=middle;whiteSpace=wrap;rounded=0;" vertex="1" parent="1">
          <mxGeometry x="31" y="360" width="53" height="30" as="geometry" />
        </mxCell>
        <mxCell id="GLqzAzolnZkkeIf7VO7s-16" value="&lt;font face=&quot;Verdana&quot;&gt;&lt;b style=&quot;&quot;&gt;PUT(x=1,P1)&lt;/b&gt;&lt;/font&gt;" style="text;html=1;align=center;verticalAlign=middle;whiteSpace=wrap;rounded=0;" vertex="1" parent="1">
          <mxGeometry x="134" y="170" width="81" height="30" as="geometry" />
        </mxCell>
        <mxCell id="GLqzAzolnZkkeIf7VO7s-17" value="&lt;font face=&quot;Verdana&quot;&gt;&lt;b style=&quot;&quot;&gt;PUT(x=2,P1)&lt;/b&gt;&lt;/font&gt;" style="text;html=1;align=center;verticalAlign=middle;whiteSpace=wrap;rounded=0;" vertex="1" parent="1">
          <mxGeometry x="134" y="190" width="81" height="30" as="geometry" />
        </mxCell>
        <mxCell id="GLqzAzolnZkkeIf7VO7s-18" value="&lt;font face=&quot;Verdana&quot;&gt;x=2&lt;/font&gt;" style="text;html=1;align=center;verticalAlign=middle;whiteSpace=wrap;rounded=0;" vertex="1" parent="1">
          <mxGeometry x="332" y="198" width="60" height="30" as="geometry" />
        </mxCell>
        <mxCell id="GLqzAzolnZkkeIf7VO7s-19" value="&lt;font face=&quot;Verdana&quot;&gt;x=1&lt;/font&gt;" style="text;html=1;align=center;verticalAlign=middle;whiteSpace=wrap;rounded=0;" vertex="1" parent="1">
          <mxGeometry x="332" y="218" width="60" height="30" as="geometry" />
        </mxCell>
        <mxCell id="GLqzAzolnZkkeIf7VO7s-20" value="" style="endArrow=classic;html=1;rounded=0;" edge="1" parent="1">
          <mxGeometry width="50" height="50" relative="1" as="geometry">
            <mxPoint x="223" y="185" as="sourcePoint" />
            <mxPoint x="343" y="232" as="targetPoint" />
          </mxGeometry>
        </mxCell>
        <mxCell id="GLqzAzolnZkkeIf7VO7s-21" value="" style="endArrow=classic;html=1;rounded=0;entryX=0.197;entryY=-0.157;entryDx=0;entryDy=0;entryPerimeter=0;" edge="1" parent="1" target="GLqzAzolnZkkeIf7VO7s-19">
          <mxGeometry width="50" height="50" relative="1" as="geometry">
            <mxPoint x="223" y="206" as="sourcePoint" />
            <mxPoint x="343" y="253" as="targetPoint" />
          </mxGeometry>
        </mxCell>
        <mxCell id="GLqzAzolnZkkeIf7VO7s-22" value="&lt;font face=&quot;Verdana&quot;&gt;&lt;b style=&quot;&quot;&gt;PUT(x=2,P1)&lt;/b&gt;&lt;/font&gt;" style="text;html=1;align=center;verticalAlign=middle;whiteSpace=wrap;rounded=0;" vertex="1" parent="1">
          <mxGeometry x="134" y="262" width="81" height="30" as="geometry" />
        </mxCell>
        <mxCell id="GLqzAzolnZkkeIf7VO7s-23" value="&lt;font face=&quot;Verdana&quot;&gt;x=2&lt;/font&gt;" style="text;html=1;align=center;verticalAlign=middle;whiteSpace=wrap;rounded=0;" vertex="1" parent="1">
          <mxGeometry x="332" y="296" width="60" height="30" as="geometry" />
        </mxCell>
        <mxCell id="GLqzAzolnZkkeIf7VO7s-24" value="" style="endArrow=classic;html=1;rounded=0;entryX=0.233;entryY=0.567;entryDx=0;entryDy=0;entryPerimeter=0;" edge="1" parent="1" target="GLqzAzolnZkkeIf7VO7s-23">
          <mxGeometry width="50" height="50" relative="1" as="geometry">
            <mxPoint x="223" y="278" as="sourcePoint" />
            <mxPoint x="344" y="285" as="targetPoint" />
          </mxGeometry>
        </mxCell>
        <mxCell id="GLqzAzolnZkkeIf7VO7s-25" value="&lt;font face=&quot;Verdana&quot;&gt;&lt;b style=&quot;&quot;&gt;GET(y,x,P1)&lt;/b&gt;&lt;/font&gt;" style="text;html=1;align=center;verticalAlign=middle;whiteSpace=wrap;rounded=0;" vertex="1" parent="1">
          <mxGeometry x="134" y="279" width="81" height="30" as="geometry" />
        </mxCell>
        <mxCell id="GLqzAzolnZkkeIf7VO7s-26" value="" style="endArrow=classic;html=1;rounded=0;curved=1;" edge="1" parent="1">
          <mxGeometry width="50" height="50" relative="1" as="geometry">
            <mxPoint x="223" y="292" as="sourcePoint" />
            <mxPoint x="223" y="313" as="targetPoint" />
            <Array as="points">
              <mxPoint x="458" y="300" />
            </Array>
          </mxGeometry>
        </mxCell>
        <mxCell id="GLqzAzolnZkkeIf7VO7s-27" value="&lt;font color=&quot;#990000&quot; face=&quot;Verdana&quot;&gt;x=1&lt;/font&gt;" style="text;html=1;align=center;verticalAlign=middle;whiteSpace=wrap;rounded=0;" vertex="1" parent="1">
          <mxGeometry x="332" y="266" width="60" height="30" as="geometry" />
        </mxCell>
        <mxCell id="GLqzAzolnZkkeIf7VO7s-28" value="&lt;font color=&quot;#990000&quot; face=&quot;Verdana&quot;&gt;y&lt;/font&gt;&lt;span style=&quot;color: rgb(153, 0, 0); font-family: Verdana; background-color: initial;&quot;&gt;=1&lt;/span&gt;" style="text;html=1;align=center;verticalAlign=middle;whiteSpace=wrap;rounded=0;" vertex="1" parent="1">
          <mxGeometry x="175" y="296" width="60" height="30" as="geometry" />
        </mxCell>
        <mxCell id="GLqzAzolnZkkeIf7VO7s-29" value="&lt;font face=&quot;Verdana&quot;&gt;&lt;b style=&quot;&quot;&gt;GET_ACC(y,x+=2,P1)&lt;/b&gt;&lt;/font&gt;" style="text;html=1;align=center;verticalAlign=middle;whiteSpace=wrap;rounded=0;" vertex="1" parent="1">
          <mxGeometry x="86" y="343" width="121" height="30" as="geometry" />
        </mxCell>
        <mxCell id="GLqzAzolnZkkeIf7VO7s-30" value="&lt;font face=&quot;Verdana&quot;&gt;&lt;b style=&quot;&quot;&gt;ACC(x+=1,P1)&lt;/b&gt;&lt;/font&gt;" style="text;html=1;align=center;verticalAlign=middle;whiteSpace=wrap;rounded=0;" vertex="1" parent="1">
          <mxGeometry x="109" y="365" width="121" height="30" as="geometry" />
        </mxCell>
        <mxCell id="GLqzAzolnZkkeIf7VO7s-31" value="&lt;font face=&quot;Verdana&quot;&gt;x+=2&lt;/font&gt;" style="text;html=1;align=center;verticalAlign=middle;whiteSpace=wrap;rounded=0;" vertex="1" parent="1">
          <mxGeometry x="333" y="361" width="69" height="30" as="geometry" />
        </mxCell>
        <mxCell id="GLqzAzolnZkkeIf7VO7s-32" value="" style="endArrow=classic;html=1;rounded=0;" edge="1" parent="1">
          <mxGeometry width="50" height="50" relative="1" as="geometry">
            <mxPoint x="225" y="379" as="sourcePoint" />
            <mxPoint x="344" y="406" as="targetPoint" />
          </mxGeometry>
        </mxCell>
        <mxCell id="GLqzAzolnZkkeIf7VO7s-33" value="" style="endArrow=classic;html=1;rounded=0;curved=1;" edge="1" parent="1">
          <mxGeometry width="50" height="50" relative="1" as="geometry">
            <mxPoint x="224" y="358" as="sourcePoint" />
            <mxPoint x="224" y="398" as="targetPoint" />
            <Array as="points">
              <mxPoint x="459" y="379" />
            </Array>
          </mxGeometry>
        </mxCell>
        <mxCell id="GLqzAzolnZkkeIf7VO7s-34" value="&lt;font color=&quot;#990000&quot; face=&quot;Verdana&quot;&gt;x=2&lt;/font&gt;" style="text;html=1;align=center;verticalAlign=middle;whiteSpace=wrap;rounded=0;" vertex="1" parent="1">
          <mxGeometry x="333" y="337" width="60" height="30" as="geometry" />
        </mxCell>
        <mxCell id="GLqzAzolnZkkeIf7VO7s-36" value="&lt;font face=&quot;Verdana&quot;&gt;x+=1&lt;/font&gt;" style="text;html=1;align=center;verticalAlign=middle;whiteSpace=wrap;rounded=0;" vertex="1" parent="1">
          <mxGeometry x="333" y="390" width="69" height="30" as="geometry" />
        </mxCell>
        <mxCell id="GLqzAzolnZkkeIf7VO7s-37" value="&lt;font color=&quot;#990000&quot; face=&quot;Verdana&quot;&gt;y=2&lt;/font&gt;" style="text;html=1;align=center;verticalAlign=middle;whiteSpace=wrap;rounded=0;" vertex="1" parent="1">
          <mxGeometry x="175" y="383" width="60" height="30" as="geometry" />
        </mxCell>
      </root>
    </mxGraphModel>
  </diagram>
</mxfile>
